<mxfile host="app.diagrams.net" modified="2022-07-18T15:35:40.937Z" agent="5.0 (X11; Linux x86_64) AppleWebKit/537.36 (KHTML, like Gecko) Chrome/102.0.5005.149 Safari/537.36" etag="Bg6omYO3XFPKz3TWf4Fz" version="20.0.1" type="github">
  <diagram id="za04dOYnZOiES3rM4Ytc" name="Page-1">
    <mxGraphModel dx="1422" dy="841" grid="1" gridSize="10" guides="1" tooltips="1" connect="1" arrows="1" fold="1" page="1" pageScale="1" pageWidth="850" pageHeight="1100" math="0" shadow="0">
      <root>
        <mxCell id="0" />
        <mxCell id="1" parent="0" />
        <mxCell id="DQG0xnMZYwX3viQgFrAl-4" value="" style="ellipse;whiteSpace=wrap;html=1;aspect=fixed;fillColor=#e3c800;strokeColor=#B09500;opacity=30;fontColor=#000000;" parent="1" vertex="1">
          <mxGeometry x="20" y="40" width="255" height="255" as="geometry" />
        </mxCell>
        <mxCell id="DQG0xnMZYwX3viQgFrAl-5" value="" style="ellipse;whiteSpace=wrap;html=1;aspect=fixed;fillColor=#0050ef;strokeColor=#001DBC;opacity=30;shadow=0;fontColor=#ffffff;" parent="1" vertex="1">
          <mxGeometry x="190" y="80" width="160" height="160" as="geometry" />
        </mxCell>
        <mxCell id="DQG0xnMZYwX3viQgFrAl-6" value="data_raw_compra_autopress" style="text;html=1;strokeColor=none;fillColor=none;align=center;verticalAlign=middle;whiteSpace=wrap;rounded=0;" parent="1" vertex="1">
          <mxGeometry x="57.5" y="10" width="180" height="30" as="geometry" />
        </mxCell>
        <mxCell id="DQG0xnMZYwX3viQgFrAl-7" value="data_raw_venta_resumenventas" style="text;html=1;strokeColor=none;fillColor=none;align=center;verticalAlign=middle;whiteSpace=wrap;rounded=0;" parent="1" vertex="1">
          <mxGeometry x="245" y="50" width="180" height="30" as="geometry" />
        </mxCell>
        <mxCell id="DQG0xnMZYwX3viQgFrAl-8" value="&lt;font style=&quot;font-size: 18px;&quot;&gt;206.928&lt;/font&gt;" style="text;html=1;strokeColor=none;fillColor=none;align=center;verticalAlign=middle;whiteSpace=wrap;rounded=0;shadow=0;opacity=30;" parent="1" vertex="1">
          <mxGeometry x="70" y="110" width="90" height="70" as="geometry" />
        </mxCell>
        <mxCell id="DQG0xnMZYwX3viQgFrAl-9" value="&lt;font style=&quot;font-size: 18px;&quot;&gt;78.015&lt;/font&gt;" style="text;html=1;strokeColor=none;fillColor=none;align=center;verticalAlign=middle;whiteSpace=wrap;rounded=0;shadow=0;opacity=30;" parent="1" vertex="1">
          <mxGeometry x="270" y="110" width="90" height="70" as="geometry" />
        </mxCell>
        <mxCell id="DQG0xnMZYwX3viQgFrAl-10" value="&lt;font style=&quot;font-size: 12px;&quot;&gt;65.816&lt;/font&gt;" style="text;html=1;strokeColor=none;fillColor=none;align=center;verticalAlign=middle;whiteSpace=wrap;rounded=0;shadow=0;opacity=30;" parent="1" vertex="1">
          <mxGeometry x="190" y="120" width="90" height="70" as="geometry" />
        </mxCell>
      </root>
    </mxGraphModel>
  </diagram>
</mxfile>
